<svg xmlns="http://www.w3.org/2000/svg" xmlns:xlink="http://www.w3.org/1999/xlink" viewBox="0 0 30 30" fill="#FFFFFF">
  <path d="M24,4H6C4.895,4,4,4.895,4,6v18c0,1.105,0.895,2,2,2h18c1.105,0,2-0.895,2-2V6C26,4.895,25.105,4,24,4z M20.68,11.989 c0.006,0.13,0.009,0.261,0.009,0.392c0,4.003-3.047,8.619-8.619,8.619c-1.711,0-3.303-0.501-4.644-1.361 c0.237,0.028,0.479,0.042,0.723,0.042c1.419,0,2.725-0.484,3.762-1.297c-1.326-0.025-2.444-0.901-2.83-2.104 c0.185,0.035,0.375,0.054,0.57,0.054c0.277,0,0.544-0.037,0.799-0.106c-1.386-0.278-2.43-1.502-2.43-2.97c0-0.013,0-0.025,0-0.038 c0.409,0.227,0.875,0.363,1.372,0.379c-0.813-0.543-1.347-1.47-1.347-2.521c0-0.556,0.15-1.076,0.41-1.523 c1.494,1.833,3.726,3.039,6.244,3.165c-0.051-0.221-0.078-0.453-0.078-0.69c0-1.673,1.357-3.029,3.029-3.029 c0.871,0,1.659,0.368,2.211,0.957c0.69-0.136,1.339-0.388,1.924-0.735c-0.226,0.707-0.706,1.301-1.332,1.676 c0.613-0.073,1.197-0.236,1.74-0.477C21.786,11.028,21.272,11.561,20.68,11.989z" fill="#FFFFFF" />
</svg>